<svg width="292" height="35" viewBox="0 0 292 35" fill="none" xmlns="http://www.w3.org/2000/svg">
  <path
    d="M34.4 14.82V16.95C24.82 18.95 15.54 22.72 7.12999 27.48C6.97999 9.20999 5.74998 16.06 18.5 2.8C19.7 1.63 21.84 1.63 23.03 2.8C23.65 3.72 35.09 13.69 34.4 14.82Z"
    fill="#BA2D2D" />
  <path
    d="M40.37 17.59C39.44 20.16 36.62 21.54 34.4 22.98V21.65C35.98 20.38 38.45 19.12 38.85 17.11C32.03 15.2 5.45001 25.88 2.17001 31.92C2.78001 32.64 4.03002 32.21 4.80002 32.65C5.62002 33.43 4.37001 34.04 3.59001 33.78C-12.21 30.51 40.61 7.38 40.37 17.59Z"
    fill="#BA2D2D" />
  <path d="M27.67 34.01C27.72 34.01 27.78 34.02 27.83 34.02C28.8 34.09 29.97 34.16 31.05 34.03L27.67 34.01Z"
    fill="#BA2D2D" />
  <path
    d="M34.4 31.41V16.93V16.74C34.4 16.9 32.27 17.62 32.06 17.71C30.89 18.21 29.72 18.72 28.55 19.24C25.63 20.55 22.73 21.92 19.91 23.42C17.2 24.86 14.49 26.4 12.08 28.28C10.76 29.32 8.58 31.01 8.63 32.84C8.68 34.67 13.9 34.07 15.17 34.06C20.48 33.98 25.77 33.99 31.08 34.04C32.71 33.83 34.12 33.19 34.4 31.41Z"
    fill="#BA2D2D" />
  <path
    d="M66.0744 15.6768C64.1642 13.7666 61.6173 12.766 58.9339 12.766C56.7053 12.766 54.5677 13.812 52.7939 15.1765V0.622496H48.8825V34.0057H52.7939V22.8173C52.7939 19.4062 55.5683 16.5864 58.9339 16.5864C62.345 16.5864 65.0738 19.4062 65.0738 22.8173V34.0057H68.9852V22.8173C68.9852 20.0885 67.9392 17.587 66.0744 15.6768ZM91.1882 15.8587C89.1416 13.812 86.4127 12.7205 83.5019 12.7205C80.5911 12.7205 77.8622 13.812 75.7701 15.8587C73.7234 17.9508 72.5864 20.6797 72.5864 23.5905C72.5864 26.5013 73.7234 29.2302 75.7701 31.3223C77.8622 33.369 80.5911 34.506 83.5019 34.506C86.4127 34.506 89.1416 33.369 91.1882 31.3223C93.2804 29.2302 94.4174 26.5013 94.4174 23.5905C94.4174 20.6797 93.2804 17.9508 91.1882 15.8587ZM83.5019 30.5946C79.636 30.5946 76.4978 27.4564 76.4978 23.5905C76.4978 19.7246 79.636 16.6319 83.5019 16.6319C87.3678 16.6319 90.506 19.7246 90.506 23.5905C90.506 27.4564 87.3678 30.5946 83.5019 30.5946ZM131.478 15.6768C129.568 13.7666 127.066 12.766 124.383 12.766C121.699 12.766 119.152 13.9485 117.242 15.8587C116.878 16.2225 116.56 16.5864 116.242 16.9957C115.969 16.5864 115.65 16.2225 115.287 15.8587C113.376 13.9485 110.829 12.766 108.146 12.766C105.917 12.766 103.78 13.812 102.006 15.1765V13.1753H98.0946V34.0057H102.006V22.8173C102.006 19.4062 104.78 16.5864 108.146 16.5864C111.557 16.5864 114.286 19.4062 114.286 22.8173V34.0057H118.197V22.8173C118.197 19.4062 120.972 16.5864 124.383 16.5864C127.748 16.5864 130.523 19.4062 130.523 22.8173V34.0057H134.434V22.8173C134.434 20.0885 133.388 17.587 131.478 15.6768ZM157.434 21.2255C157.07 19.3153 156.115 17.587 154.841 16.1771C152.977 14.1759 150.475 13.0389 147.746 13.0389C145.063 13.0389 142.516 14.1759 140.697 16.1771C139.423 17.587 138.514 19.3153 138.104 21.2255C137.922 22.0441 137.831 22.8628 137.831 23.6815C137.831 23.9998 137.831 24.3182 137.877 24.6366C138.059 27.138 139.059 29.4121 140.697 31.1859C142.516 33.2325 145.017 34.3695 147.746 34.3695C149.702 34.2786 151.658 33.7783 153.249 32.8232C154.296 32.1865 155.205 31.4133 156.024 30.5036L152.749 28.548C151.43 29.8669 149.52 30.6401 147.655 30.7311C144.654 30.6856 142.061 28.0931 141.606 24.6366V24.5456H157.661C157.707 24.1363 157.752 23.0902 157.434 21.2255ZM141.925 21.271L141.97 21.18C142.925 18.4966 145.245 16.6774 147.746 16.6774C150.293 16.6774 152.613 18.4966 153.522 21.18L153.568 21.271H141.925Z"
    fill="#494848" />
  <path
    d="M160.3 13.1753V16.9048H171.261L160.346 30.1853V34.0057H176.355V30.2762H165.394L176.309 16.9957V13.1753H160.3ZM197.696 15.8587C195.649 13.812 192.92 12.7205 190.01 12.7205C187.099 12.7205 184.37 13.812 182.278 15.8587C180.231 17.9508 179.094 20.6797 179.094 23.5905C179.094 26.5013 180.231 29.2302 182.278 31.3223C184.37 33.369 187.099 34.506 190.01 34.506C192.92 34.506 195.649 33.369 197.696 31.3223C199.788 29.2302 200.925 26.5013 200.925 23.5905C200.925 20.6797 199.788 17.9508 197.696 15.8587ZM190.01 30.5946C186.144 30.5946 183.006 27.4564 183.006 23.5905C183.006 19.7246 186.144 16.6319 190.01 16.6319C193.876 16.6319 197.014 19.7246 197.014 23.5905C197.014 27.4564 193.876 30.5946 190.01 30.5946ZM222.067 15.6768C220.157 13.7666 217.61 12.766 214.927 12.766C212.698 12.766 210.56 13.812 208.787 15.1765V13.1753H204.875V34.0057H208.787V22.8173C208.787 19.4062 211.561 16.5864 214.927 16.5864C218.338 16.5864 221.067 19.4062 221.067 22.8173V34.0057H224.978V22.8173C224.978 20.0885 223.932 17.587 222.067 15.6768ZM248.263 21.2255C247.899 19.3153 246.944 17.587 245.67 16.1771C243.806 14.1759 241.304 13.0389 238.575 13.0389C235.892 13.0389 233.345 14.1759 231.526 16.1771C230.252 17.587 229.343 19.3153 228.933 21.2255C228.751 22.0441 228.66 22.8628 228.66 23.6815C228.66 23.9998 228.66 24.3182 228.706 24.6366C228.888 27.138 229.888 29.4121 231.526 31.1859C233.345 33.2325 235.847 34.3695 238.575 34.3695C240.531 34.2786 242.487 33.7783 244.079 32.8232C245.125 32.1865 246.034 31.4133 246.853 30.5036L243.578 28.548C242.259 29.8669 240.349 30.6401 238.484 30.7311C235.483 30.6856 232.89 28.0931 232.435 24.6366V24.5456H248.49C248.536 24.1363 248.581 23.0902 248.263 21.2255ZM232.754 21.271L232.799 21.18C233.754 18.4966 236.074 16.6774 238.575 16.6774C241.122 16.6774 243.442 18.4966 244.352 21.18L244.397 21.271H232.754ZM254.04 28.8208C252.585 28.8208 251.448 30.0034 251.448 31.4133C251.448 32.8232 252.585 34.0057 254.04 34.0057C255.45 34.0057 256.587 32.8232 256.587 31.4133C256.587 30.0034 255.45 28.8208 254.04 28.8208ZM277.537 15.5858C275.582 13.9485 273.126 12.7205 270.533 12.7205C267.623 12.7205 264.894 13.812 262.802 15.8587C260.755 17.9508 259.618 20.6797 259.618 23.5905C259.618 26.5013 260.755 29.2302 262.802 31.3223C264.894 33.369 267.623 34.4605 270.533 34.4605C273.126 34.4605 275.582 33.2325 277.537 31.5952V34.0057H281.449V13.1753H277.537V15.5858ZM270.533 30.6401C266.667 30.6401 263.529 27.4564 263.529 23.5905C263.529 19.7246 266.667 16.5409 270.533 16.5409C274.399 16.5409 277.537 19.7246 277.537 23.5905C277.537 27.4564 274.399 30.6401 270.533 30.6401ZM291.136 34.0057V0.622496H287.224V34.0057H291.136Z"
    fill="#BA2D2D" />
</svg>
