<?xml version="1.0" encoding="utf-8"?>
<!-- Generator: Adobe Illustrator 25.4.1, SVG Export Plug-In . SVG Version: 6.00 Build 0)  -->
<svg xmlns="http://www.w3.org/2000/svg" xmlns:xlink="http://www.w3.org/1999/xlink" version="1.1" id="Layer_1" x="0px" y="0px" viewBox="0 0 595.3 123.3" style="enable-background:new 0 0 595.3 123.3;" xml:space="preserve">
<style type="text/css">
	.st0{fill:#182126;}
	.st1{fill:#E51A1A;}
</style>
<g>
	<g>
		<path class="st0" d="M91.6,106.9H13.3V95.2l48.1-54.8l8-7.6v-0.2h-55V18.2h76.7v11.6L43.3,84.5l-7.8,7.7v0.2h56.1V106.9z"/>
		<path class="st0" d="M268.5,106.9h-20l-18.8-24.6l-5.1-8.4h-0.2l-5.1,8.4l-18.8,24.6h-19.8l34.2-44.4l-34.3-44.4h20l19.4,25.2    l4.6,7.4h0.2l4.5-7.4l19.5-25.2h19.8l-34.1,44.2L268.5,106.9z"/>
		<path class="st0" d="M348.3,32.6h-30.7l0.1,74.3h-15.9l0-74.3h-30.6V18.2h77.2V32.6z"/>
		<g>
			<path class="st1" d="M443.5,18.2L410,90l-6.5-12.9c-2.4-4.6-6.2-8.2-9.3-9.4v-0.2c8.2-3.7,15.7-11.9,15.7-22     c0-18.5-15.3-27.3-32.5-27.3h-24.2v14.5h24.2c10.1,0,16.3,3.6,16.3,12.8c0,7-5.7,12.6-17.5,12.6h-23v14.3h15.7     c10.7,0,16.4,3.5,20.2,11.1l11.8,23.4h18.8l9.8-21.1h43l9.8,21.1h17.4l-41.4-88.7H443.5z M466.8,71.3h-31.6l1.1-1.4l14.6-32.2     h0.2l14.6,32.2L466.8,71.3z"/>
			<path class="st1" d="M548.9,56.6c-2.1-0.5-12.4-3.2-14.2-3.7c-15.4-4.1-19.5-6.9-19.5-11.1c0-4.4,5-10.3,21.4-10.3     c10.8,0,18.8,4.1,25.6,11.8L573.6,32c-9.9-10-22.2-14.9-37.1-14.9c-25,0-37.5,11.7-37.5,25.2c0,14.3,12.9,20.2,28.9,24.4     c2,0.5,14.5,3.6,16.4,4.2c11.6,2.8,15.1,7.6,15.1,11.4c0,5.6-6.1,11.3-22.3,11.3c-10.5,0-18.6-3.1-29.5-12.5l-11.4,11.3     c11.4,11.3,26.6,15.7,41.3,15.7c27.1,0,38.1-12.8,38.1-26.4C575.7,70.3,567.2,61.1,548.9,56.6z"/>
		</g>
		<g>
			<rect x="100.9" y="55.3" class="st0" width="66.6" height="14.5"/>
			<rect x="100.9" y="92.4" class="st0" width="71.9" height="14.5"/>
			<rect x="100.9" y="18.2" class="st0" width="71.9" height="14.5"/>
		</g>
		<g>
			<path class="st1" d="M579.6,25.1c-2.7,0-4.8-2.2-4.8-4.8c0-2.6,2.2-4.8,4.8-4.8c2.6,0,4.8,2.2,4.8,4.8     C584.4,23,582.2,25.1,579.6,25.1z M579.6,16c-2.3,0-4.2,2-4.2,4.3c0,2.3,1.9,4.3,4.2,4.3c2.3,0,4.2-2,4.2-4.3     C583.8,18,581.9,16,579.6,16z M582.1,23.1h-0.7l-0.7-1.4c-0.3-0.6-0.6-0.8-1.4-0.8H578l0.1,0.1v2.2h-0.6v-5.5h2.4     c1,0,1.9,0.5,1.9,1.6c0,0.6-0.4,1.1-1.1,1.4c0.4,0.3,0.5,0.5,0.6,0.8L582.1,23.1z M579.8,18.2H578l0.1,0.1v1.9l-0.1,0.1h1.8     c0.8,0,1.3-0.4,1.3-1C581,18.4,580.5,18.2,579.8,18.2z"/>
		</g>
	</g>
</g>
</svg>
