<?xml version="1.0" encoding="utf-8"?>
<!-- Generator: Adobe Illustrator 24.0.1, SVG Export Plug-In . SVG Version: 6.00 Build 0)  -->
<svg version="1.1" id="Layer_1" xmlns="http://www.w3.org/2000/svg" xmlns:xlink="http://www.w3.org/1999/xlink" x="0px" y="0px"
	 viewBox="0 0 1366 424" style="enable-background:new 0 0 1366 424;" xml:space="preserve">
<style type="text/css">
	.st0{fill:#39DBB5;}
	.st1{fill:#FDC933;}
	.st2{fill:#01236A;}
</style>
<g>
	<g>
		<line class="st0" x1="54.9" y1="356.7" x2="230.4" y2="79.3"/>
		<path class="st0" d="M54.9,394.5c-6.9,0-13.9-1.9-20.2-5.9c-17.6-11.2-22.9-34.5-11.7-52.1L198.5,59.1
			c11.2-17.6,34.5-22.9,52.1-11.7c17.6,11.2,22.9,34.5,11.7,52.1L86.9,376.9C79.7,388.3,67.4,394.5,54.9,394.5z"/>
	</g>
	<g>
		<g>
			<line class="st1" x1="405.9" y1="356.7" x2="340" y2="252.6"/>
			<path class="st1" d="M405.9,394.5c-12.5,0-24.8-6.2-32-17.6l-65.9-104.1c-11.2-17.6-5.9-41,11.7-52.1c17.6-11.2,41-5.9,52.1,11.7
				l65.9,104.1c11.2,17.6,5.9,41-11.7,52.1C419.8,392.6,412.8,394.5,405.9,394.5z"/>
		</g>
	</g>
	<g>
		<line class="st0" x1="340" y1="252.6" x2="230.4" y2="252.6"/>
		<path class="st0" d="M340,290.4H230.4c-20.9,0-37.8-16.9-37.8-37.8s16.9-37.8,37.8-37.8H340c20.9,0,37.8,16.9,37.8,37.8
			S360.9,290.4,340,290.4z"/>
	</g>
	<g>
		<g>
			<path class="st2" d="M649.5,197l-9.6-26.9h-62.3l-9.5,26.9h-36.9l57.6-153.3h40.7L687.3,197H649.5z M588.9,138.3h39.9l-20-56.6
				L588.9,138.3z"/>
			<path class="st2" d="M701.9,197V37h32.4v160H701.9z"/>
			<path class="st2" d="M865.9,97.9c10.3,11.4,15.5,25.5,15.5,42.3c0,16.9-5.2,31-15.5,42.4c-10.4,11.4-23.4,17-39.2,17
				c-13.8,0-25.2-5.1-34.2-15.4V197h-32.4V37h32.4v59.3c9-10.2,20.4-15.3,34.2-15.3C842.4,81,855.4,86.7,865.9,97.9z M820.3,168.4
				c7.9,0,14.5-2.7,19.9-8c5.3-5.3,7.9-12,7.9-20.1c0-7.9-2.6-14.6-7.9-20c-5.3-5.3-11.9-7.9-19.9-7.9c-8,0-14.6,2.6-19.9,7.9
				c-5.3,5.3-7.9,12-7.9,20c0,8,2.6,14.8,7.9,20.1C805.6,165.6,812.3,168.4,820.3,168.4z"/>
			<path class="st2" d="M983.6,83.7h32.4V197h-32.4v-12.5c-9.2,10.1-20.6,15.1-34.3,15.2c-15.5,0-28.5-5.6-39-17
				c-10.5-11.4-15.7-25.5-15.7-42.4c0-16.8,5.2-30.9,15.7-42.3c10.4-11.3,23.4-16.9,39-16.9c13.6,0,25.1,5,34.3,15.1V83.7z
				 M975.8,160.3c5.2-5.3,7.8-12,7.8-20.1c0-7.9-2.6-14.6-7.9-20c-5.3-5.3-11.9-7.9-19.9-7.9s-14.4,2.6-19.6,7.9
				c-5.3,5.3-7.9,12-7.9,20c0,8,2.6,14.8,7.9,20.1c5.2,5.3,11.7,8,19.6,8C963.8,168.4,970.4,165.6,975.8,160.3z"/>
			<path class="st2" d="M1140,92.7c7.9,7.9,11.9,18.3,11.9,31.4V197h-32.4v-62c0-6.8-2-12.3-6-16.5c-4-4.1-9.3-6.2-15.8-6.2
				c-6.9,0-12.6,2.1-16.9,6.3c-4.4,4.2-6.6,9.8-6.6,16.8V197h-32.4V83.7h32.4v12.4c8.7-10.1,20.2-15.1,34.4-15.1
				C1121.6,81,1132.1,84.9,1140,92.7z"/>
			<path class="st2" d="M1177.5,63.6c-3.8-3.8-5.8-8.6-5.8-14.3c0-5.6,2-10.3,5.8-14.1c3.8-3.8,8.6-5.6,14.2-5.6
				c5.8,0,10.6,1.8,14.5,5.6c3.8,3.8,5.7,8.5,5.7,14.1c0,5.8-2,10.5-5.7,14.3c-3.9,3.8-8.8,5.6-14.5,5.6
				C1186.1,69.2,1181.3,67.3,1177.5,63.6z M1175.6,197V83.7h32.4V197H1175.6z"/>
			<path class="st2" d="M1316.4,83.7h32.4V197h-32.4v-12.5c-9.2,10.1-20.6,15.1-34.3,15.2c-15.5,0-28.5-5.6-39-17
				c-10.5-11.4-15.7-25.5-15.7-42.4c0-16.8,5.2-30.9,15.7-42.3c10.4-11.3,23.4-16.9,39-16.9c13.6,0,25.1,5,34.3,15.1V83.7z
				 M1308.6,160.3c5.2-5.3,7.8-12,7.8-20.1c0-7.9-2.6-14.6-7.9-20c-5.3-5.3-11.9-7.9-19.9-7.9s-14.4,2.6-19.6,7.9
				c-5.3,5.3-7.9,12-7.9,20c0,8,2.6,14.8,7.9,20.1c5.2,5.3,11.7,8,19.6,8C1296.7,168.4,1303.3,165.6,1308.6,160.3z"/>
			<path class="st2" d="M645.5,231.7v32.4h-38V385H573V264.1h-38v-32.4H645.5z"/>
			<path class="st2" d="M758.2,338.8h-86.7c3.6,12.7,13.8,20.6,27.1,20.6c10.7,0,19.9-4.8,23.8-11.3h34.4
				c-4.1,11.8-11.5,21.4-22,28.6c-10.6,7.3-22.9,11-36.8,11c-17.5,0-32.1-5.6-43.7-17c-11.6-11.4-17.5-25.5-17.5-42.4
				c0-16.8,5.9-30.9,17.5-42.3c11.6-11.3,26.3-16.9,43.7-16.9c17.4,0,31.9,5.6,43.6,16.9c11.6,11.4,17.5,25.6,17.5,42.9
				C759.1,333,758.8,336.4,758.2,338.8z M671.8,317.2h52.4c-3.4-12.5-13.7-20.2-26.2-20.2C685.3,297,675.7,304.7,671.8,317.2z"/>
			<path class="st2" d="M788.4,370.7c-11.6-11.4-17.5-25.5-17.5-42.4c0-16.8,5.9-30.9,17.5-42.3c11.6-11.3,26.3-16.9,43.7-16.9
				c16,0,29.6,4.8,40.9,14.4c11.2,9.7,17.7,21.9,19.5,36.9h-33.9c-3.4-11.8-13.6-20-26.6-20c-8,0-14.6,2.6-19.9,7.9
				c-5.3,5.3-7.9,12-7.9,20c0,8,2.6,14.8,7.9,20.1c5.2,5.3,11.8,8,19.9,8c6.5,0,12.2-1.8,17-5.6c4.8-3.7,7.9-8.5,9.5-14.4h33.9
				c-1.8,15-8.4,27.2-19.5,36.9c-11.3,9.7-25,14.5-40.9,14.5C814.6,387.7,800,382.1,788.4,370.7z"/>
			<path class="st2" d="M1009,280.7c7.9,7.9,11.9,18.3,11.9,31.4V385h-32.4v-62c0-6.8-2-12.3-6-16.5c-4-4.1-9.3-6.2-15.8-6.2
				c-6.9,0-12.6,2.1-16.9,6.3c-4.4,4.2-6.6,9.8-6.6,16.8V385h-32.4v-160h32.4v60c8.8-10.6,20.3-15.9,34.4-15.9
				C990.5,269,1001,272.9,1009,280.7z"/>
		</g>
	</g>
</g>
</svg>
